<?xml version="1.0" encoding="UTF-8" standalone="no"?>
<!-- Created with Inkscape (http://www.inkscape.org/) -->

<svg
   width="195.75064mm"
   height="60.251076mm"
   viewBox="0 0 195.75064 60.251076"
   version="1.1"
   id="svg625"
   xml:space="preserve"
   inkscape:version="1.2.2 (b0a8486541, 2022-12-01)"
   sodipodi:docname="button-itchio.svg"
   inkscape:export-filename="button-itchio.png"
   inkscape:export-xdpi="19.392185"
   inkscape:export-ydpi="19.392185"
   xmlns:inkscape="http://www.inkscape.org/namespaces/inkscape"
   xmlns:sodipodi="http://sodipodi.sourceforge.net/DTD/sodipodi-0.dtd"
   xmlns="http://www.w3.org/2000/svg"
   xmlns:svg="http://www.w3.org/2000/svg"><sodipodi:namedview
     id="namedview627"
     pagecolor="#ffffff"
     bordercolor="#666666"
     borderopacity="1.0"
     inkscape:showpageshadow="2"
     inkscape:pageopacity="0.0"
     inkscape:pagecheckerboard="0"
     inkscape:deskcolor="#d1d1d1"
     inkscape:document-units="mm"
     showgrid="false"
     inkscape:zoom="0.67526655"
     inkscape:cx="413.17017"
     inkscape:cy="207.32554"
     inkscape:window-width="1920"
     inkscape:window-height="1013"
     inkscape:window-x="0"
     inkscape:window-y="0"
     inkscape:window-maximized="1"
     inkscape:current-layer="layer1" /><defs
     id="defs622" /><g
     inkscape:label="Layer 1"
     inkscape:groupmode="layer"
     id="layer1"
     transform="translate(28.334834,-93.525361)"><path
       style="fill:#000000;stroke-width:0.264583"
       d="m -23.310316,153.62086 c -2.299224,-0.4684 -4.154492,-2.13029 -4.768604,-4.27157 -0.160154,-0.55843 -0.257496,-10.41309 -0.255895,-25.90614 l 0.0026,-25.00487 0.630402,-1.353881 c 0.681663,-1.463973 1.948028,-2.598481 3.531079,-3.163416 1.47814,-0.527496 185.980234,-0.527496 187.458374,0 1.45354,0.518716 2.76735,1.617785 3.44148,2.878979 l 0.59288,1.109151 0.076,25.003127 c 0.0532,17.4995 -0.0112,25.36044 -0.21447,26.19375 -0.44565,1.82655 -1.44497,3.06898 -3.13674,3.8998 l -1.48732,0.73041 -92.471869,0.0367 c -50.859536,0.0202 -92.888599,-0.0482 -93.397922,-0.15199 z m 41.407292,-8.75797 c 3.376171,-0.2481 6.188697,-0.60909 7.313338,-0.93868 0.579167,-0.16973 1.452594,-2.259 1.82295,-4.36057 0.39493,-2.24103 0.640699,-13.22696 0.397489,-17.7679 l -0.192127,-3.5872 -1.533478,-0.30169 c -1.171826,-0.23055 -1.821656,-0.55536 -2.755413,-1.37729 l -1.221933,-1.07559 -0.768747,0.82295 c -2.090269,2.23764 -6.393281,2.15249 -8.214291,-0.16254 l -0.524063,-0.66624 -1.213078,1.06779 c -2.2984349,2.02316 -5.3541079,2.02316 -7.6525439,0 l -1.213077,-1.06779 -0.524063,0.66624 c -0.82470103,1.04843 -2.73005003,1.84193 -4.387095,1.82704 -1.559802,-0.014 -3.434143,-0.88851 -4.176738,-1.94872 -0.391211,-0.55853 -0.399834,-0.55578 -1.61751,0.51607 -0.673312,0.59267 -1.573375,1.14481 -2.0001411,1.22698 -0.426765,0.0822 -1.121815,0.21591 -1.544555,0.2972 l -0.768618,0.14779 -0.189836,3.03824 c -0.298868,4.78324 0.01843,17.11346 0.494058,19.19909 0.585576,2.56776 1.050404,3.32743 2.226968,3.63954 0.8520591,0.22602 4.1381761,0.60403 7.8695871,0.90524 2.66294697,0.21497 17.0477899,0.14438 20.3729169,-0.1 z m -26.8552079,-4.67586 c -1.8257101,-0.6713 -1.8005881,-2.49847 0.129568,-9.42411 0.798867,-2.86643 1.740712,-5.78048 2.092988,-6.47566 0.84959,-1.67659 2.748977,-3.40765 3.995607,-3.64152 1.67456697,-0.31415 3.563686,0.055 4.618342,0.9026 l 0.954053,0.7667 4.357325,0.007 c 4.2482509,0.007 4.3743829,-0.009 5.0387009,-0.63265 1.210657,-1.13636 3.895479,-1.52005 5.610977,-0.80188 1.117338,0.46777 2.736141,2.28466 3.414226,3.83202 1.01719,2.32118 3.141416,10.18542 3.299619,12.21572 0.135315,1.73662 0.08779,2.06658 -0.380598,2.6427 -0.473221,0.58206 -0.775759,0.66867 -2.61166,0.74761 -3.747371,0.16114 -6.075469,-1.55858 -6.823993,-5.04077 l -0.155721,-0.72442 -2.443154,0.19526 c -3.1158659,0.24901 -6.8015409,0.24866 -9.9267969,-0.001 -1.86721703,-0.14914 -2.47884703,-0.1174 -2.54946903,0.13229 -0.0511,0.18067 -0.228746,0.82914 -0.394761,1.44105 -0.66937797,2.46719 -3.08098497,4.05556 -6.10858697,4.02334 -0.945885,-0.0101 -1.898385,-0.084 -2.116666,-0.16423 z m 18.520833,-8.66201 v -1.17679 l 1.3664569,-0.08 1.366459,-0.08 -2.373884,-2.4474 c -1.3056339,-1.34607 -2.5456169,-2.44746 -2.7555189,-2.44755 -0.209902,-8e-5 -1.4532,1.10125 -2.762888,2.4474 l -2.38125,2.44755 1.389063,0.08 1.389062,0.08 v 1.17679 1.1768 h 2.38125 2.38125 z M 68.103226,143.5115 c 2.19609,-0.819 2.13905,-0.68612 1.33317,-3.10599 -0.39334,-1.18109 -0.79469,-2.14322 -0.89188,-2.13806 -0.0972,0.005 -0.474362,0.17953 -0.838164,0.3875 -0.813683,0.46514 -2.165757,0.50653 -2.592916,0.0794 -0.222475,-0.22247 -0.3175,-1.68745 -0.3175,-4.89479 v -4.57729 h 2.116666 2.116664 v -2.51357 -2.51354 h -2.116664 -2.116666 v -2.38125 -2.38125 h -3.307292 -3.307292 v 2.38125 2.38125 h -1.322917 -1.322916 v 2.51354 2.51354 h 1.304417 1.304417 l 0.08464,5.77488 0.08465,5.77488 0.726474,1.09691 c 0.80445,1.21464 1.797389,1.83221 3.460927,2.15256 1.50766,0.29033 4.006866,0.045 5.602182,-0.54997 z m 15.875,0.11569 c 1.63237,-0.50277 3.30597,-1.40236 3.31121,-1.77982 0.002,-0.1551 -0.42832,-1.3177 -0.95662,-2.58355 l -0.96053,-2.30154 -1.35495,0.91248 c -1.15855,0.78021 -1.57791,0.91248 -2.89299,0.91248 -3.06749,0 -4.02327,-1.16283 -4.02327,-4.89479 0,-3.49772 0.80404,-4.70237 3.1386,-4.70237 0.87151,0 1.19818,0.1599 1.86821,0.91445 0.4466,0.50294 0.93107,1.11768 1.07659,1.36608 0.23516,0.4014 0.50734,0.28849 2.4474,-1.01529 1.20054,-0.80679 2.18281,-1.56602 2.18281,-1.68717 0,-0.41778 -1.55901,-2.37104 -2.47727,-3.10373 -2.18166,-1.74079 -5.49927,-2.17741 -8.88447,-1.16925 -2.36279,0.70367 -3.71194,1.89364 -4.92134,4.34069 -0.82565,1.6706 -0.97158,2.25697 -1.09935,4.41748 -0.36465,6.16609 2.27688,9.89294 7.65398,10.79873 1.71883,0.28954 4.13913,0.11502 5.89199,-0.42488 z m 30.079354,0.4425 c 3.14259,-0.87283 3.13484,-5.48343 -0.0106,-6.33042 -2.27157,-0.61167 -4.27183,0.87016 -4.27183,3.16464 0,1.84179 1.1424,3.07028 3.175,3.41424 0.0728,0.0123 0.57112,-0.0995 1.10747,-0.24846 z m 25.48315,-0.41932 c 3.82171,-1.1469 6.22776,-4.7618 6.27512,-9.42788 0.0486,-4.79074 -2.38667,-8.56501 -6.36638,-9.8667 -2.02171,-0.66127 -5.78566,-0.43763 -7.737,0.4597 -5.57563,2.56396 -7.06876,11.49925 -2.72831,16.32688 2.54121,2.82643 6.42268,3.74858 10.55657,2.508 z m -4.83743,-5.01148 c -0.90453,-0.63356 -1.39974,-1.83322 -1.56361,-3.78792 -0.20934,-2.49695 0.42245,-4.62588 1.58275,-5.33334 1.61822,-0.98668 3.06345,-0.51225 3.93708,1.29243 1.1514,2.37847 0.52061,7.10816 -1.06088,7.95455 -0.77559,0.41509 -2.21229,0.3527 -2.89534,-0.12572 z m -80.490698,-4.61415 v -9.78958 H 50.90531 47.598019 v 9.78958 9.78958 h 3.307291 3.307292 z m 42.068754,2.97058 v -6.819 l 0.94693,-0.50996 c 1.3997,-0.75378 2.68632,-0.67211 3.452984,0.21917 0.62359,0.72497 0.62717,0.76682 0.62717,7.32896 v 6.59983 h 3.46703 3.46703 l -0.10248,-7.34218 c -0.097,-6.95105 -0.13447,-7.41267 -0.70309,-8.66511 -1.26602,-2.78855 -2.9579,-3.82303 -6.26078,-3.82806 -1.694214,-0.003 -2.393904,0.12584 -3.505734,0.64347 l -1.38906,0.6467 v -3.95657 -3.95658 h -3.3073 -3.30729 v 13.22917 13.22916 h 3.30729 3.3073 z m 28.310414,-2.97058 v -9.78958 h -3.30729 -3.30729 v 9.78958 9.78958 h 3.30729 3.30729 z M 52.708642,122.35211 c 1.013573,-0.51835 1.491855,-1.35551 1.498076,-2.62215 0.0097,-1.97831 -1.284142,-3.16772 -3.445883,-3.16772 -3.021431,0 -4.533086,3.41149 -2.37408,5.35781 0.675989,0.6094 1.04567,0.72761 2.275541,0.72761 0.807635,0 1.728491,-0.133 2.046346,-0.29555 z m 70.915038,-0.24782 c 2.31723,-1.82273 0.8637,-5.54769 -2.16106,-5.53815 -1.45048,0.005 -2.30974,0.38995 -3.02847,1.35824 -1.00073,1.34823 -0.46048,3.889 0.94753,4.45615 1.14506,0.46124 3.49936,0.30793 4.242,-0.27624 z M -9.9181419,116.05606 c 1.119301,-0.5083 2.274941,-1.79087 2.612431,-2.89937 0.181687,-0.59676 0.213487,-0.57726 0.650634,0.39914 1.737878,3.88168 6.76282297,3.96549 8.62458,0.14386 l 0.541279,-1.11109 0.332624,0.91986 c 0.480158,1.32785 2.226117,2.72751 3.673014,2.94448 2.243511,0.33644 4.4621369,-0.85513 5.3706929,-2.88445 l 0.461714,-1.03127 0.309144,0.93672 c 0.170032,0.5152 0.771652,1.35457 1.336937,1.86527 2.353554,2.12629 5.784644,1.35512 7.319844,-1.64522 l 0.571941,-1.11778 0.294072,0.89104 c 0.362193,1.09746 1.419505,2.14052 2.720734,2.68408 3.317759,1.38591 6.549779,-1.3643 6.55546,-5.57821 0.0019,-1.44857 -1.391468,-3.53659 -4.144034,-6.20978 l -2.072198,-2.01244 -8.557266,-0.19279 c -4.706496,-0.10604 -12.7194949,-0.10598 -17.8066649,1.3e-4 l -9.2493971,0.19293 -1.243337,0.99414 c -1.360179,1.08757 -3.884096,4.01312 -4.616774,5.35145 -0.892964,1.63111 -0.471682,4.58868 0.871533,6.11852 1.519481,1.73059 3.413623,2.16237 5.4430371,1.24078 z m 73.7477739,-5.41444 c 0.384863,-0.22584 0.534998,-0.21778 0.626047,0.0336 0.06587,0.1819 0.407506,0.33073 0.759179,0.33073 0.637135,0 0.639411,-0.0103 0.639411,-2.89012 0,-2.72324 -0.03955,-2.93712 -0.684977,-3.70417 -0.60225,-0.71573 -0.849903,-0.81393 -2.050521,-0.81306 -0.914067,6.6e-4 -1.662732,0.18217 -2.264421,0.54898 -0.893066,0.54446 -0.895519,0.55135 -0.379772,1.0671 0.481684,0.48169 0.57509,0.48991 1.295752,0.11411 1.067308,-0.55657 1.601044,-0.51054 2.084562,0.17978 0.659842,0.94206 0.496155,1.2028 -0.873339,1.39115 -2.48725,0.34208 -3.763598,1.77782 -2.918677,3.28315 0.594712,1.05956 2.373653,1.27619 3.766756,0.4587 z m -2.032307,-0.87035 c -0.351798,-0.3518 -0.164602,-1.13422 0.335383,-1.40181 0.281475,-0.15064 0.876787,-0.27389 1.322917,-0.27389 0.626864,0 0.811144,0.11681 0.811144,0.51417 0,0.88695 -1.866223,1.76475 -2.469444,1.16153 z m 16.552991,0.77238 c 0.41118,-0.36259 0.47432,-0.35961 0.62362,0.0294 0.0914,0.23809 0.45103,0.43289 0.79927,0.43289 0.6297,0 0.63315,-0.016 0.63315,-2.93077 0,-2.88649 -0.0117,-2.94245 -0.7734,-3.70416 -0.64161,-0.64161 -0.99102,-0.77323 -2.05052,-0.77241 -0.8246,6.3e-4 -1.59563,0.19516 -2.176,0.54898 -0.89307,0.54445 -0.89552,0.55135 -0.37977,1.0671 0.48168,0.48168 0.57509,0.48991 1.29575,0.1141 1.3297,-0.69339 1.94333,-0.47786 2.3413,0.82238 0.15795,0.51607 0.0502,0.58623 -1.15538,0.75204 -2.54467,0.34998 -3.81996,1.90731 -2.81627,3.43913 0.64149,0.97903 2.6509,1.08959 3.65825,0.20128 z m -1.9807,-0.75217 c -0.35571,-0.35572 -0.20527,-1.1435 0.26642,-1.39508 0.25467,-0.13583 0.82021,-0.28884 1.25677,-0.34004 0.63999,-0.0751 0.80904,0.0139 0.87267,0.45924 0.0434,0.30377 -0.087,0.69002 -0.2898,0.85832 -0.47928,0.39777 -1.85341,0.67021 -2.10606,0.41756 z m 16.00481,0.98585 c 0.78385,-0.39963 0.99375,-0.42474 1.10598,-0.13229 0.0762,0.19852 0.45014,0.36095 0.83104,0.36095 h 0.69253 l -0.0889,-3.0662 c -0.0865,-2.98307 -0.10904,-3.08349 -0.83127,-3.70416 -0.95783,-0.82315 -2.83919,-0.87207 -4.09488,-0.10648 -0.75711,0.4616 -0.83085,0.59984 -0.57502,1.07786 0.19982,0.37337 0.43474,0.4892 0.7362,0.36299 1.72232,-0.72109 1.92429,-0.76245 2.36769,-0.48485 0.25096,0.15712 0.49315,0.59272 0.53821,0.96801 0.075,0.6248 -0.0204,0.69768 -1.13149,0.8643 -1.73744,0.26055 -2.89837,1.11213 -3.00394,2.2035 -0.12264,1.26783 0.53187,1.89332 2.21162,2.11358 0.15114,0.0198 0.71015,-0.18593 1.24225,-0.45721 z m -1.62149,-1.19301 c -0.16585,-0.19984 -0.22683,-0.55806 -0.13551,-0.79604 0.14943,-0.38939 0.42059,-0.49863 2.02591,-0.81617 0.35079,-0.0694 0.46302,0.0845 0.46302,0.63493 0,1.07741 -1.68843,1.77855 -2.35342,0.97728 z m 10.345664,1.41091 c 1.25082,-0.3474 2.04018,-1.44725 2.23811,-3.11847 0.3788,-3.19835 -1.70739,-5.14274 -4.158084,-3.87544 l -0.78061,0.40367 v -1.99117 -1.99116 h -0.92604 -0.92604 v 5.29166 5.29167 h 0.77813 c 0.42798,0 0.84671,-0.11096 0.93053,-0.24657 0.0885,-0.14316 0.45565,-0.0884 0.87551,0.13066 0.86276,0.45008 0.74851,0.44397 1.968494,0.10515 z m -2.383084,-1.62966 c -0.1795,-0.1795 -0.3175,-1.03934 -0.3175,-1.97827 0,-1.47824 0.0725,-1.70828 0.65953,-2.09292 0.90468,-0.59277 1.839874,-0.30777 2.251564,0.68615 0.37116,0.89606 0.22049,2.72038 -0.27387,3.31604 -0.38715,0.4665 -1.877884,0.51084 -2.319724,0.069 z m 14.109424,1.61102 c 1.49172,-0.37562 1.96531,-0.88969 1.36898,-1.48601 -0.35545,-0.35545 -0.54973,-0.3762 -1.1142,-0.11901 -0.76658,0.34927 -1.964,0.40355 -2.40511,0.10901 -0.34679,-0.23156 -0.8995,-1.23448 -0.8995,-1.6322 0,-0.17876 0.87464,-0.28197 2.38955,-0.28197 2.68968,0 2.89266,-0.14505 2.37941,-1.70023 -0.68703,-2.08171 -3.05839,-2.90618 -4.98332,-1.73258 -2.55175,1.55576 -1.95983,6.00386 0.91353,6.86493 1.03413,0.3099 1.03279,0.30991 2.35066,-0.0219 z m -3.04983,-4.7331 c 0,-0.46585 1.03975,-1.32292 1.60489,-1.32292 0.84459,0 1.57011,0.49334 1.57011,1.06764 0,0.459 -0.18587,0.51986 -1.5875,0.51986 -0.88195,0 -1.5875,-0.11759 -1.5875,-0.26458 z m 15.08125,4.26692 c 2.08356,-1.47443 2.05506,-5.09325 -0.0502,-6.37681 -1.03727,-0.63241 -2.8287,-0.70264 -3.89237,-0.15259 -2.06314,1.06689 -2.46544,4.56105 -0.71451,6.20596 1.2149,1.14134 3.29697,1.28594 4.65711,0.32344 z m -3.278,-1.23272 c -0.99743,-0.99743 -0.72828,-3.43131 0.45257,-4.09253 0.63001,-0.35278 0.78725,-0.35278 1.41515,0 0.85644,0.48117 1.25808,1.56692 1.02979,2.78381 -0.21672,1.15523 -0.7828,1.7141 -1.73618,1.7141 -0.41577,0 -0.93837,-0.18242 -1.16133,-0.40538 z m -49.066754,-1.54535 c 1.77143,-4.3985 1.72031,-4.13468 0.80122,-4.13468 -0.98827,0 -1.12873,0.19434 -2.0557,2.84427 -0.41996,1.20054 -0.83606,2.18281 -0.92467,2.18281 -0.0886,0 -0.31226,-0.50602 -0.49703,-1.12448 -0.18476,-0.61846 -0.56935,-1.74956 -0.85464,-2.51354 -0.4872,-1.3047 -0.5738,-1.38906 -1.425736,-1.38906 -0.498866,0 -0.907031,0.0576 -0.907031,0.12795 0,0.16126 2.645687,6.80151 2.826517,7.09409 0.0735,0.11886 0.5022,0.17964 0.95275,0.13505 0.7819,-0.0774 0.87676,-0.22401 2.08432,-3.22241 z m 11.54023,-0.36437 -0.0736,-3.63802 -0.85989,-0.0829 -0.8599,-0.0829 v 3.72093 3.72093 h 0.93351 0.93351 z m 3.49827,-1.65365 v -5.29166 h -0.92605 -0.92604 v 5.29166 5.29167 h 0.92604 0.92605 z m 19.050004,0 v -5.29166 h -0.92604 -0.92605 v 5.29166 5.29167 h 0.92605 0.92604 z m 23.01875,2.54564 v -2.74602 l 0.82503,-0.34174 c 1.44749,-0.59957 1.67765,-0.20576 1.76361,3.01769 l 0.0751,2.8161 h 0.91709 0.91709 v -2.79552 c 0,-2.78823 -0.20551,-3.6365 -1.0354,-4.27367 -0.60428,-0.46395 -2.18304,-0.41157 -2.90841,0.0965 -0.57746,0.40447 -0.63941,0.40447 -0.86577,0 -0.13408,-0.2396 -0.53553,-0.43564 -0.8921,-0.43564 h -0.64832 v 3.70416 3.70417 h 0.92605 0.92604 z m -45.558634,-6.70393 c -0.17724,-1.47657 -1.84131,-1.46028 -2.01799,0.0197 -0.0638,0.53427 0.0632,0.75836 0.52916,0.93423 0.88827,0.33522 1.58964,-0.1142 1.48883,-0.95398 z"
       id="path758" /></g></svg>
