<?xml version="1.0" encoding="UTF-8" standalone="no"?>
<!-- Created with Inkscape (http://www.inkscape.org/) -->

<svg
   width="197.36469mm"
   height="66.138123mm"
   viewBox="0 0 197.36469 66.138122"
   version="1.1"
   id="svg407"
   xml:space="preserve"
   inkscape:version="1.2.2 (b0a8486541, 2022-12-01)"
   sodipodi:docname="github.svg"
   inkscape:export-filename="button-github.png"
   inkscape:export-xdpi="17.666059"
   inkscape:export-ydpi="17.666059"
   xmlns:inkscape="http://www.inkscape.org/namespaces/inkscape"
   xmlns:sodipodi="http://sodipodi.sourceforge.net/DTD/sodipodi-0.dtd"
   xmlns="http://www.w3.org/2000/svg"
   xmlns:svg="http://www.w3.org/2000/svg"><sodipodi:namedview
     id="namedview409"
     pagecolor="#ffffff"
     bordercolor="#666666"
     borderopacity="1.0"
     inkscape:showpageshadow="2"
     inkscape:pageopacity="0.0"
     inkscape:pagecheckerboard="0"
     inkscape:deskcolor="#d1d1d1"
     inkscape:document-units="mm"
     showgrid="false"
     inkscape:zoom="0.67526655"
     inkscape:cx="353.93431"
     inkscape:cy="450.19259"
     inkscape:window-width="1920"
     inkscape:window-height="1013"
     inkscape:window-x="0"
     inkscape:window-y="0"
     inkscape:window-maximized="1"
     inkscape:current-layer="layer1" /><defs
     id="defs404" /><g
     inkscape:label="Layer 1"
     inkscape:groupmode="layer"
     id="layer1"
     transform="translate(12.741019,-29.245777)"><path
       style="fill:#000000;stroke-width:0.264583"
       d="m -8.9161815,94.758906 c -1.5899885,-0.75167 -2.5621165,-1.73927 -3.2858845,-3.33818 -0.531286,-1.17368 -0.538953,-1.58772 -0.538953,-29.10416 0,-27.51644 0.0077,-27.93048 0.538953,-29.10417 0.723768,-1.5989 1.695896,-2.5865 3.2858845,-3.33817 l 1.322916,-0.62541 93.3672215,-0.003 c 70.802444,-0.002 93.618214,0.0726 94.405764,0.30857 1.35851,0.40702 3.33833,2.16893 3.9498,3.51506 0.46093,1.01473 0.48568,2.48567 0.4912,29.18906 0.006,31.0283 0.10906,29.11404 -1.66125,30.98015 -0.46556,0.49076 -1.44179,1.17421 -2.1694,1.51877 l -1.32292,0.62647 H 85.936944 -7.5932655 Z M 17.388577,84.170336 c 0.195074,-0.23505 0.279754,-1.17443 0.230836,-2.56073 l -0.07726,-2.1895 -1.792174,0.0657 c -3.189077,0.11682 -4.693647,-0.68622 -5.9939525,-3.19915 -0.474395,-0.9168 -1.4169,-2.16656 -2.094456,-2.77724 -1.420336,-1.28013 -1.297605,-1.86311 0.328029,-1.55813 1.123571,0.21078 2.2799975,1.13529 3.3311635,2.6631 0.922004,1.34009 2.161632,1.98973 3.796755,1.98973 1.821651,0 2.412301,-0.32602 2.773246,-1.53075 0.173405,-0.57877 0.493326,-1.20008 0.710938,-1.38068 0.607843,-0.50446 0.473215,-0.79274 -0.370221,-0.79274 -1.189395,0 -3.997695,-0.95609 -5.374807,-1.82986 -2.344027,-1.48728 -3.8146835,-4.34708 -4.0932645,-7.95965 -0.192552,-2.49696 0.189672,-4.23845 1.3550025,-6.17367 0.814875,-1.35323 0.848254,-1.50674 0.595709,-2.73958 -0.201576,-0.98403 -0.175627,-1.69337 0.105248,-2.87715 0.336725,-1.41916 0.444773,-1.57938 1.117077,-1.65646 0.953558,-0.10932 2.798651,0.5208 4.387339,1.49833 l 1.246846,0.76719 1.837844,-0.38836 c 1.919465,-0.40561 7.118993,-0.32883 8.698143,0.12844 0.646374,0.18717 1.141809,0.0356 2.987378,-0.91409 1.499839,-0.77176 2.546623,-1.13847 3.249814,-1.13847 0.996072,0 1.049467,0.0447 1.342784,1.12448 0.177591,0.65375 0.244742,1.9412 0.160414,3.07547 -0.13014,1.75047 -0.07997,2.04959 0.488196,2.91041 1.038337,1.57319 1.447814,3.11095 1.444432,5.42447 -0.0053,3.64467 -0.942223,6.14116 -3.025285,8.06125 -1.412523,1.30202 -2.900471,2.00195 -5.235435,2.46273 -0.911908,0.17995 -1.693323,0.34932 -1.736479,0.37637 -0.04315,0.0271 0.194971,0.56949 0.529167,1.20543 0.54456,1.03625 0.621363,1.62314 0.739923,5.65418 l 0.132291,4.49792 0.882849,0.0846 c 1.084538,0.10395 4.184227,-1.31291 6.502003,-2.97205 11.586157,-8.29375 12.793205,-25.16728 2.501088,-34.96316 -2.906964,-2.76681 -5.702999,-4.37852 -9.675175,-5.57706 -2.036038,-0.61433 -2.791193,-0.70276 -6.031598,-0.70628 -2.93995,-0.003 -4.118666,0.10948 -5.713251,0.54614 -6.841718,1.87349 -12.1361625,6.28957 -15.0300095,12.53649 -1.344083,2.90146 -1.87670101,5.05708 -2.06445201,8.35528 -0.524678,9.21696 4.40743301,17.63399 12.75354551,21.76493 2.208652,1.09318 3.557069,1.32195 4.079759,0.69215 z m 58.038702,-1.94714 c 0.695359,-0.31292 1.788895,-0.99882 2.430076,-1.52422 l 1.165786,-0.95527 0.280427,1.00986 c 0.154233,0.55543 0.28109,1.1587 0.2819,1.3406 0.0011,0.21537 0.416777,0.33073 1.192101,0.33073 h 1.190625 v -6.08542 -6.08541 h -5.159375 -5.159375 v 1.32291 1.32292 h 3.60889 3.608893 l -0.150354,1.45679 c -0.398225,3.85843 -3.841621,6.37648 -7.972373,5.82994 -3.713038,-0.49127 -5.600358,-2.63475 -6.267119,-7.11774 -0.376976,-2.5346 0.01148,-5.52271 0.975585,-7.50436 1.320678,-2.71459 4.192661,-4.28789 7.185284,-3.93616 2.778924,0.32661 4.476721,1.45994 5.260152,3.51132 l 0.437518,1.14563 h 1.572575 1.572578 l -0.185915,-0.8599 c -0.554376,-2.56412 -2.654409,-4.95254 -5.176531,-5.8874 -1.1064,-0.4101 -2.079519,-0.52874 -4.336891,-0.52874 -2.598579,0 -3.071299,0.0754 -4.411967,0.7039 -3.011033,1.41151 -5.300776,4.47098 -6.05109,8.08522 -0.456075,2.1969 -0.201038,6.70475 0.487693,8.62015 1.070616,2.97745 3.329811,5.2488 6.1027,6.13554 1.826352,0.58405 5.881685,0.40557 7.518207,-0.33089 z m 57.547851,0.32058 c 0.54103,-0.22565 1.37064,-0.78479 1.84359,-1.24252 l 0.85989,-0.83225 v 0.97795 0.97794 h 1.32292 1.32292 v -8.46667 -8.46666 h -1.43321 -1.4332 l -0.0882,5.88698 c -0.084,5.60737 -0.11761,5.93837 -0.70841,6.96914 -0.82515,1.43968 -1.93573,2.06413 -3.69935,2.08008 -1.26721,0.0115 -1.4903,-0.0755 -2.18391,-0.85131 l -0.77252,-0.86407 v -6.61041 -6.61041 h -1.60727 -1.60726 l 0.0893,6.81302 c 0.0732,5.58522 0.16685,6.98499 0.51959,7.76729 0.5372,1.19138 1.69877,2.29476 2.73793,2.60074 1.28759,0.37914 3.77829,0.3128 4.83714,-0.12884 z m 20.51298,-0.55158 c 1.36068,-0.95116 2.69067,-2.87804 3.22241,-4.66861 0.53264,-1.7936 0.51904,-5.77531 -0.026,-7.61681 -0.53731,-1.81533 -2.61073,-4.00929 -4.20485,-4.4493 -2.37317,-0.65505 -5.13666,-0.0946 -6.68073,1.35496 l -0.59531,0.55887 v -3.88258 -3.88258 h -1.32292 -1.32292 v 11.50938 11.50937 h 1.32292 c 1.31078,0 1.32292,-0.008 1.32292,-0.84325 v -0.84325 l 0.7276,0.69636 c 1.23784,1.18469 2.36602,1.54253 4.51419,1.43181 1.61643,-0.0833 2.1167,-0.22707 3.04271,-0.87437 z m -5.20407,-1.67786 c -1.00572,-0.31944 -1.69535,-0.97385 -2.37639,-2.25506 -0.4787,-0.90056 -0.56325,-1.51195 -0.56716,-4.10105 -0.004,-2.64191 0.0728,-3.18731 0.5825,-4.14052 0.79936,-1.49476 2.18299,-2.31219 3.94176,-2.32874 1.67282,-0.0157 2.57945,0.56275 3.54095,2.25937 0.59499,1.04991 0.66145,1.46033 0.66145,4.08466 0,2.59476 -0.0734,3.06002 -0.66309,4.20601 -0.36471,0.70869 -0.96002,1.50849 -1.32292,1.77735 -0.78206,0.5794 -2.73457,0.83546 -3.7971,0.49798 z m -49.271861,2.21455 c 0.293749,-0.11273 0.418516,-0.50712 0.418516,-1.32292 0,-1.12062 -0.02911,-1.16232 -0.811144,-1.16232 -0.44613,0 -1.041443,-0.12325 -1.322917,-0.27389 -0.482129,-0.25803 -0.511773,-0.61052 -0.511773,-6.08542 v -5.81152 h 1.322917 1.322917 v -1.19063 -1.19062 h -1.322917 -1.322917 v -2.24896 -2.24896 h -1.455208 -1.455209 v 2.24896 2.24896 h -1.190625 -1.190625 v 1.19062 1.19063 h 1.190625 1.190625 v 6.24387 c 0,6.71763 0.159327,7.65522 1.402967,8.25608 0.638974,0.30871 3.072064,0.41042 3.734768,0.15612 z m -9.635651,-8.57066 v -8.46666 h -1.5875 -1.5875 v 8.46666 8.46667 h 1.5875 1.5875 z m 16.668752,3.04271 v -5.42396 h 5.82083 5.82083 v 5.42396 5.42396 h 1.5875 1.5875 v -11.50937 -11.50938 h -1.5875 -1.5875 v 4.7625 4.7625 h -5.82083 -5.82083 v -4.7625 -4.7625 h -1.71979 -1.7198 v 11.50938 11.50937 h 1.7198 1.71979 z m -90.487504,0.39688 c 0,-0.14552 -0.178593,-0.26459 -0.396875,-0.26459 -0.218281,0 -0.396875,0.11907 -0.396875,0.26459 0,0.14552 0.178594,0.26458 0.396875,0.26458 0.218282,0 0.396875,-0.11906 0.396875,-0.26458 z m 1.852084,-0.2802 c 0,-0.13693 -0.178594,-0.24897 -0.396875,-0.24897 -0.409154,0 -0.525648,0.3122 -0.227679,0.61017 0.211383,0.21138 0.624554,-0.0276 0.624554,-0.3612 z m -3.571875,0.0156 c -0.08994,-0.14552 -0.33509,-0.26458 -0.544783,-0.26458 -0.209692,0 -0.381259,0.11906 -0.381259,0.26458 0,0.14552 0.245152,0.26458 0.544783,0.26458 0.29963,0 0.471196,-0.11906 0.381259,-0.26458 z m -1.719792,-0.77813 c 0,-0.31218 -0.516031,-0.64612 -0.705556,-0.45659 -0.189524,0.18952 0.144416,0.70555 0.456588,0.70555 0.136933,0 0.248968,-0.11203 0.248968,-0.24896 z m -1.058333,-1.32292 c 0,-0.31217 -0.516032,-0.64611 -0.705556,-0.45658 -0.189524,0.18952 0.144416,0.70555 0.456587,0.70555 0.136933,0 0.248969,-0.11203 0.248969,-0.24897 z m -1.058334,-1.33853 c 0,-0.14552 -0.1190615,-0.26458 -0.2645825,-0.26458 -0.145521,0 -0.264584,0.11906 -0.264584,0.26458 0,0.14552 0.119063,0.26458 0.264584,0.26458 0.145521,0 0.2645825,-0.11906 0.2645825,-0.26458 z m 79.375002,-12.7 v -1.5875 h -1.5875 -1.5875 v 1.5875 1.5875 h 1.5875 1.5875 z m -5.842789,-9.10825 c 0.431626,-0.39062 0.503195,-0.39411 0.642419,-0.0313 0.09503,0.24765 0.48246,0.40829 0.984692,0.40829 h 0.828014 l -0.09211,-3.59381 -0.0921,-3.59382 -0.864071,-0.77181 c -1.018247,-0.90952 -3.084045,-1.11864 -4.759169,-0.48175 -0.815044,0.30987 -0.757336,1.47282 0.06712,1.35258 2.549853,-0.37186 2.691093,-0.36883 3.126965,0.067 0.244631,0.24463 0.444783,0.67441 0.444783,0.95505 0,0.41164 -0.188423,0.51027 -0.974799,0.51027 -3.355113,0 -5.196169,3.26573 -2.920535,5.18055 0.694592,0.58446 1.013439,0.67607 1.97566,0.56761 0.631068,-0.0711 1.36598,-0.32714 1.633135,-0.56892 z m -2.306378,-1.26341 c -0.356166,-0.35617 -0.412613,-1.23997 -0.109628,-1.71647 0.263425,-0.41428 1.50658,-0.87645 2.357512,-0.87645 0.632492,0 0.668226,0.0655 0.523253,0.95886 -0.08558,0.52737 -0.357738,1.18221 -0.604792,1.4552 -0.506868,0.56009 -1.687632,0.65757 -2.166345,0.17886 z m 22.943879,1.26341 c 0.43162,-0.39062 0.50319,-0.39411 0.64242,-0.0313 0.0935,0.24375 0.4799,0.40829 0.95873,0.40829 h 0.80205 l -10e-4,-3.24114 c -8e-4,-2.74251 -0.0801,-3.37084 -0.51501,-4.08416 -0.68205,-1.11859 -1.35955,-1.44377 -3.00765,-1.4436 -1.91532,1.9e-4 -2.88599,0.40634 -2.77843,1.16256 0.0603,0.42362 0.23693,0.57267 0.61366,0.51773 2.54985,-0.37186 2.69109,-0.36883 3.12697,0.067 0.2447,0.24463 0.44485,0.67441 0.44485,0.95505 0,0.41164 -0.18843,0.51027 -0.9748,0.51027 -1.32889,0 -3.18727,0.94681 -3.662628,1.86604 -0.633402,1.22487 -0.486693,2.05859 0.543528,3.08882 0.85586,0.85585 1.03216,0.92203 2.12741,0.79858 0.65681,-0.074 1.41279,-0.33242 1.67995,-0.5742 z m -2.30638,-1.26341 c -0.35616,-0.35617 -0.41261,-1.23997 -0.10963,-1.71647 0.25913,-0.40752 1.50196,-0.87645 2.3229,-0.87645 0.53269,0 0.64423,0.13125 0.64423,0.75807 0,1.58388 -1.89296,2.79938 -2.8575,1.83485 z m 14.81645,0.94304 c 0.44342,-0.41681 0.97015,-1.14097 1.17051,-1.60923 0.81778,-1.91128 0.18363,-4.89373 -1.25896,-5.92094 -1.04775,-0.74606 -2.95341,-0.74062 -3.97048,0.0113 l -0.75627,0.55914 v -2.53744 -2.53743 l -0.99219,0.0821 -0.99218,0.0821 -0.0571,6.28385 -0.0571,6.28386 h 0.91697 c 0.76508,0 0.91697,-0.0953 0.91697,-0.57529 v -0.57529 l 0.59531,0.54161 c 0.83001,0.75514 1.2224,0.87355 2.53365,0.76457 0.81023,-0.0673 1.38011,-0.31652 1.95082,-0.85298 z m -3.67189,-0.94006 c -0.82803,-0.40033 -1.2312,-1.58814 -1.07849,-3.17746 0.15442,-1.60705 0.83451,-2.32886 2.19425,-2.32886 1.28815,0 1.97426,0.98496 1.97426,2.83416 0,1.23867 -0.10807,1.54796 -0.77339,2.21328 -0.81205,0.81204 -1.36116,0.92081 -2.31663,0.45888 z m 18.502,1.62352 c 1.00939,-0.28032 1.11295,-0.42186 0.83626,-1.14291 -0.12679,-0.33042 -0.46983,-0.37704 -1.83571,-0.24949 -1.61378,0.15069 -1.71159,0.12503 -2.4899,-0.65327 -1.42067,-1.42067 -1.1863,-1.61675 2.03415,-1.70178 l 2.84427,-0.0751 0.0823,-0.85142 c 0.10789,-1.11646 -0.77932,-3.08738 -1.64517,-3.65471 -0.97026,-0.63573 -3.18724,-0.59876 -4.0878,0.0682 -2.11362,1.56527 -2.67065,4.6553 -1.23436,6.84737 0.90453,1.38048 3.34972,2.0092 5.49599,1.41315 z m -4.29947,-5.63895 c 0,-0.19865 0.24676,-0.6749 0.54837,-1.05833 1.00306,-1.27519 3.15579,-0.69874 3.15579,0.84505 0,0.53487 -0.12769,0.57448 -1.85208,0.57448 -1.38859,0 -1.85208,-0.0904 -1.85208,-0.3612 z m 18.86006,5.55467 c 1.77629,-0.75687 2.70395,-2.53062 2.51501,-4.80891 -0.20082,-2.42168 -1.76102,-3.88521 -4.14183,-3.88521 -1.54288,0 -2.7017,0.56316 -3.5202,1.71072 -0.85657,1.20093 -0.89235,4.2888 -0.0627,5.40854 1.32495,1.78819 3.30457,2.38662 5.20969,1.57486 z m -2.6599,-1.40181 c -0.60553,-0.24363 -1.11891,-1.62247 -1.11891,-3.00513 0,-1.14641 0.11973,-1.47614 0.77339,-2.1298 0.94058,-0.94058 1.6081,-0.9754 2.58529,-0.13485 0.67192,0.57796 0.74236,0.80188 0.74236,2.35993 0,1.45767 -0.0983,1.82599 -0.64144,2.40416 -0.60607,0.64514 -1.50918,0.84025 -2.34069,0.50569 z m -83.01449,-0.23034 0.468381,-1.73034 2.011267,0.0767 2.011267,0.0767 0.493007,1.65365 0.493006,1.65364 h 1.035364 c 0.56945,0 1.035365,-0.0419 1.035365,-0.0931 0,-0.0988 -2.309698,-7.32561 -3.268096,-10.2256 l -0.568362,-1.71979 -1.107474,-0.0805 c -0.851435,-0.0619 -1.165956,0.0298 -1.360435,0.39687 -0.193249,0.36472 -2.587548,7.75956 -3.645487,11.25918 -0.116692,0.38601 0.03247,0.46302 0.896921,0.46302 h 1.036894 z m 0.938445,-3.36289 c 0.05648,-0.69545 1.564592,-4.71371 1.663314,-4.43177 0.584948,1.67055 1.241732,3.86687 1.241732,4.15242 0,0.2424 -0.43425,0.3455 -1.455209,0.3455 -0.800364,0 -1.45279,-0.0298 -1.449837,-0.0661 z m 14.32414,0.99219 c 0.83625,-2.18281 1.526087,-4.12476 1.532972,-4.31545 0.0087,-0.24004 -0.290291,-0.32144 -0.971714,-0.26458 l -0.984234,0.0821 -0.86921,2.77812 c -0.478067,1.52797 -0.939527,2.95672 -1.025466,3.175 -0.08724,0.22157 -0.61658,-1.0348 -1.198372,-2.84427 l -1.042117,-3.24115 h -1.049227 c -0.577075,0 -1.049226,0.0425 -1.049226,0.0944 0,0.15534 2.952438,8.22205 3.093775,8.45288 0.07171,0.11712 0.560581,0.17665 1.086377,0.13229 l 0.95599,-0.0806 z m 15.568406,-0.26458 v -4.36563 h -0.926042 -0.926041 v 4.36563 4.36562 h 0.926041 0.926042 z m 5.494893,-1.91823 -0.07093,-6.28386 -0.992188,-0.0821 -0.992188,-0.0821 v 6.36598 6.36597 h 1.063123 1.063122 z m 25.990526,-0.0821 v -6.36597 l -0.99219,0.0821 -0.99219,0.0821 -0.0714,5.94713 c -0.0392,3.27093 -0.0132,6.09866 0.0579,6.28386 0.0711,0.18519 0.54966,0.33672 1.06355,0.33672 h 0.93435 z m 30.42708,3.49123 c 0,-2.50766 0.07,-2.96375 0.54837,-3.57187 0.54536,-0.69332 1.60181,-0.92008 2.27935,-0.48927 0.60816,0.3867 0.87645,1.70521 0.87645,4.30727 v 2.62861 h 0.94654 0.94654 l -0.0866,-3.59424 -0.0867,-3.59424 -0.86407,-0.77139 c -1.05989,-0.9462 -2.65315,-1.0447 -3.96458,-0.24511 -0.85744,0.52279 -0.85989,0.52279 -0.85989,-9.9e-4 0,-0.42767 -0.17876,-0.52528 -0.96201,-0.52528 h -0.962 l 0.16825,1.22755 c 0.0925,0.67516 0.16826,2.63969 0.16826,4.36563 v 3.13807 h 0.92604 0.92604 z m -61.907149,-7.71859 c 0.399836,-0.7471 0.08419,-1.54495 -0.68788,-1.73872 -0.787611,-0.19768 -1.434137,0.28322 -1.434137,1.06674 0,1.19939 1.573141,1.69756 2.122017,0.67198 z"
       id="path594" /></g></svg>
